<?xml version="1.0" encoding="UTF-8"?>
<svg xmlns="http://www.w3.org/2000/svg" xmlns:xlink="http://www.w3.org/1999/xlink" width="375pt" height="374.999991pt" viewBox="0 0 375 374.999991" version="1.2">
<defs>
<clipPath id="clip1">
  <path d="M 223 200.042969 L 262.5 200.042969 L 262.5 244.527344 L 223 244.527344 Z M 223 200.042969 "/>
</clipPath>
<clipPath id="clip2">
  <path d="M 112.5 128.488281 L 243.757812 128.488281 L 243.757812 246.15625 L 112.5 246.15625 Z M 112.5 128.488281 "/>
</clipPath>
</defs>
<g id="surface1">
<g clip-path="url(#clip1)" clip-rule="nonzero">
<path style=" stroke:none;fill-rule:nonzero;fill:rgb(23.529053%,67.449951%,68.238831%);fill-opacity:1;" d="M 240.320312 212.140625 C 240.320312 212.140625 246.011719 204.984375 245.304688 200.253906 L 248.183594 203.429688 L 249.597656 207.527344 L 248.277344 212.164062 L 260.199219 206.207031 L 260.199219 212.164062 L 254.226562 220.613281 C 254.226562 220.613281 262.183594 228.355469 262.511719 231.320312 L 253.566406 228.6875 L 256.871094 238.265625 L 248.9375 238.265625 L 240.320312 233.957031 L 241.644531 240.902344 L 232.695312 236.945312 L 229.722656 236.289062 L 229.722656 244.527344 L 223.089844 239.230469 L 228.730469 206.511719 L 237.015625 203.546875 L 240.320312 212.140625 "/>
</g>
<path style=" stroke:none;fill-rule:nonzero;fill:rgb(18.429565%,9.408569%,27.839661%);fill-opacity:1;" d="M 258.289062 228.027344 C 257.601562 227.273438 256.46875 226.921875 255.574219 226.519531 C 254.605469 226.097656 253.613281 225.71875 252.597656 225.484375 C 252.339844 225.414062 252.148438 225.789062 252.410156 225.929688 C 253.421875 226.472656 254.484375 226.921875 255.523438 227.414062 C 256.375 227.8125 257.179688 228.355469 258.121094 228.496094 C 258.335938 228.519531 258.40625 228.191406 258.289062 228.027344 Z M 256.988281 210.960938 C 254.863281 212.632812 253.070312 214.820312 251.535156 217.058594 C 251.277344 217.433594 251.867188 217.742188 252.125 217.410156 C 253.753906 215.269531 255.59375 213.363281 257.414062 211.410156 C 257.695312 211.101562 257.296875 210.726562 256.988281 210.960938 Z M 236.875 216.46875 C 236.6875 213.175781 235.976562 209.550781 235.011719 206.417969 C 234.820312 205.832031 234.042969 206.089844 234.113281 206.65625 C 234.5625 209.902344 235.246094 213.386719 236.144531 216.5625 C 236.261719 216.964844 236.898438 216.894531 236.875 216.46875 Z M 236.167969 233.039062 C 235.507812 232.382812 234.964844 231.605469 234.347656 230.875 C 234.183594 230.664062 233.78125 230.898438 233.875 231.15625 C 234.5625 232.875 236.285156 234.710938 238.007812 235.417969 C 238.339844 235.558594 238.597656 235.0625 238.339844 234.828125 C 237.652344 234.21875 236.851562 233.722656 236.167969 233.039062 Z M 251.015625 231.582031 C 251.085938 231.980469 250.660156 232.214844 250.355469 231.980469 C 249.292969 231.109375 248.632812 229.554688 247.828125 228.425781 C 246.835938 227.015625 245.75 225.671875 244.640625 224.332031 C 244.546875 224.214844 244.546875 224.097656 244.570312 224 C 244.335938 224.023438 244.121094 224.046875 243.886719 224.070312 C 240.960938 224.285156 238.148438 224.519531 235.246094 224.917969 C 234.84375 224.964844 234.515625 224.425781 234.9375 224.214844 C 236.828125 223.296875 238.859375 223.128906 240.9375 223.058594 C 241.761719 221.367188 242.683594 219.765625 243.25 217.929688 C 243.816406 216.1875 244.027344 214.421875 244.40625 212.632812 C 244.476562 212.257812 245.066406 212.351562 245.066406 212.726562 C 245.113281 216.140625 243.792969 220.1875 241.714844 223.035156 C 244.40625 222.988281 247.121094 223.011719 249.597656 221.789062 C 250 221.601562 250.355469 222.164062 249.953125 222.378906 C 248.441406 223.222656 246.859375 223.695312 245.183594 223.929688 C 246.484375 225.085938 247.640625 226.355469 248.679688 227.746094 C 249.550781 228.851562 250.78125 230.191406 251.015625 231.582031 "/>
<g clip-path="url(#clip2)" clip-rule="nonzero">
<path style=" stroke:none;fill-rule:nonzero;fill:rgb(77.648926%,18.03894%,39.608765%);fill-opacity:1;" d="M 137.726562 144.683594 C 137.726562 144.683594 138.71875 128.488281 153.304688 128.488281 C 167.894531 128.488281 170.207031 136.585938 170.207031 136.585938 C 170.207031 136.585938 173.511719 129.476562 181.140625 130.464844 C 188.765625 131.453125 193.390625 132.113281 196.390625 144.683594 C 196.390625 144.683594 209.65625 135.761719 217.257812 143.363281 C 224.859375 150.964844 230.523438 163.511719 224.550781 169.796875 C 224.550781 169.796875 246.4375 175.089844 243.4375 188.625 C 240.441406 202.160156 237.464844 206.796875 225.542969 206.796875 C 225.542969 206.796875 240.792969 219.363281 235.480469 228.945312 C 230.171875 238.523438 216.265625 242.171875 212.9375 240.832031 C 209.632812 239.511719 204.320312 233.558594 204.320312 233.558594 C 204.320312 233.558594 197.027344 243.136719 187.085938 243.796875 C 177.148438 244.457031 177.808594 248.761719 169.855469 243.796875 C 161.898438 238.828125 156.917969 234.546875 156.917969 234.546875 C 156.917969 234.546875 131.089844 240.5 124.789062 226.308594 C 118.484375 212.117188 124.789062 202.183594 124.789062 202.183594 C 124.789062 202.183594 113.195312 198.535156 112.535156 189.945312 C 111.875 181.351562 120.492188 171.441406 120.492188 171.441406 C 120.492188 171.441406 104.910156 146.660156 137.726562 144.683594 "/>
</g>
<path style=" stroke:none;fill-rule:nonzero;fill:rgb(100%,100%,100%);fill-opacity:1;" d="M 165.605469 170.453125 C 167.351562 169.703125 178.1875 165.160156 188.882812 171.703125 C 191.433594 173.257812 200.425781 178.761719 201.085938 189.308594 C 201.769531 200.253906 192.917969 207.171875 192.28125 207.667969 C 183.523438 214.257812 172.425781 210.960938 166.078125 206.679688 C 158.6875 201.710938 150.734375 190.742188 153.636719 181.375 C 155.691406 174.785156 162.15625 171.960938 165.605469 170.453125 "/>
<path style=" stroke:none;fill-rule:nonzero;fill:rgb(23.529053%,67.449951%,68.238831%);fill-opacity:1;" d="M 163.054688 210.820312 C 160.765625 213.621094 158.40625 216.988281 157.742188 220.613281 C 157.695312 220.871094 158.050781 221.058594 158.191406 220.800781 C 159.820312 217.433594 161.097656 214.1875 163.480469 211.246094 C 163.714844 210.9375 163.292969 210.515625 163.054688 210.820312 Z M 172.59375 214.867188 C 171.128906 218.46875 169.453125 222.519531 169.003906 226.402344 C 168.957031 226.777344 169.5 226.777344 169.617188 226.472656 C 171.128906 222.824219 171.980469 218.777344 173.207031 215.035156 C 173.324219 214.632812 172.734375 214.492188 172.59375 214.867188 Z M 183.757812 216.703125 C 184.019531 220.613281 184.042969 224.894531 185.175781 228.660156 C 185.269531 228.96875 185.742188 228.921875 185.742188 228.589844 C 185.71875 224.660156 184.75 220.636719 184.347656 216.703125 C 184.324219 216.351562 183.734375 216.328125 183.757812 216.703125 Z M 192.515625 213.082031 C 192.234375 212.820312 191.785156 213.246094 192.09375 213.503906 C 195.066406 216.351562 197.308594 219.695312 200.023438 222.753906 C 200.214844 222.988281 200.542969 222.683594 200.425781 222.449219 C 198.632812 218.847656 195.445312 215.761719 192.515625 213.082031 Z M 211.425781 211.644531 C 209.5625 210.398438 207.390625 209.550781 205.429688 208.445312 C 203.449219 207.335938 201.511719 206.136719 199.625 204.890625 C 199.316406 204.679688 199.054688 205.171875 199.339844 205.359375 C 202.882812 207.902344 206.988281 210.914062 211.238281 212.042969 C 211.519531 212.140625 211.640625 211.785156 211.425781 211.644531 Z M 214.753906 199.546875 C 211.898438 198.394531 208.664062 197.921875 205.621094 197.5 C 205.289062 197.453125 205.148438 197.945312 205.476562 197.992188 C 208.59375 198.464844 211.566406 199.335938 214.636719 199.945312 C 214.898438 199.992188 214.992188 199.640625 214.753906 199.546875 Z M 215.722656 189.261719 C 215.933594 189.238281 216.007812 188.929688 215.769531 188.859375 C 212.984375 188.25 209.867188 188.34375 207.035156 188.273438 C 206.679688 188.273438 206.679688 188.789062 207.035156 188.835938 C 209.84375 189.074219 212.914062 189.542969 215.722656 189.261719 Z M 204.675781 181.46875 C 208.6875 180.246094 212.488281 178.597656 216.101562 176.503906 C 216.40625 176.316406 216.125 175.84375 215.816406 176.03125 C 212.183594 177.988281 208.429688 179.660156 204.535156 181 C 204.226562 181.070312 204.367188 181.5625 204.675781 181.46875 Z M 200.472656 171.347656 C 200.238281 171.703125 200.78125 172.007812 201.015625 171.679688 C 203.542969 168.101562 206.632812 165.371094 209.703125 162.335938 C 209.914062 162.125 209.632812 161.746094 209.375 161.910156 C 205.738281 164.171875 202.808594 167.84375 200.472656 171.347656 Z M 190.394531 165.769531 C 192.09375 162.476562 194.453125 159.957031 196.71875 157.085938 C 196.835938 156.945312 196.695312 156.710938 196.507812 156.828125 C 193.554688 158.851562 191.382812 162.3125 189.828125 165.464844 C 189.660156 165.820312 190.203125 166.148438 190.394531 165.769531 Z M 178.636719 151.976562 C 178.398438 155.816406 179.132812 159.816406 179.582031 163.628906 C 179.628906 164.007812 180.21875 164.027344 180.195312 163.628906 C 179.957031 159.792969 179.957031 155.671875 179.0625 151.929688 C 178.988281 151.695312 178.660156 151.742188 178.636719 151.976562 Z M 164.96875 154.144531 C 164.898438 153.933594 164.542969 153.957031 164.566406 154.191406 C 164.730469 157.414062 166.476562 160.429688 168.554688 162.804688 C 168.769531 163.066406 169.121094 162.6875 168.910156 162.453125 C 166.832031 159.957031 165.914062 157.203125 164.96875 154.144531 Z M 160.105469 167.75 C 160.339844 167.984375 160.695312 167.628906 160.484375 167.371094 C 159.632812 166.429688 158.78125 165.488281 157.957031 164.546875 C 157.128906 163.605469 156.375 162.570312 155.429688 161.722656 C 155.195312 161.511719 154.816406 161.792969 154.980469 162.078125 C 156.328125 164.171875 158.359375 166.007812 160.105469 167.75 Z M 146.316406 169.089844 C 148.160156 170.289062 149.976562 171.515625 151.820312 172.714844 C 152.171875 172.949219 152.480469 172.386719 152.148438 172.171875 C 150.449219 171.019531 148.726562 169.84375 147.027344 168.691406 C 145.351562 167.558594 143.675781 166.171875 141.808594 165.347656 C 141.597656 165.253906 141.335938 165.511719 141.527344 165.699219 C 142.894531 167.042969 144.6875 168.007812 146.316406 169.089844 Z M 140.179688 179.730469 C 139.847656 179.613281 139.707031 180.082031 139.96875 180.246094 C 141.832031 181.5625 144.359375 182.058594 146.578125 182.246094 C 146.957031 182.269531 146.957031 181.707031 146.578125 181.660156 C 144.242188 181.421875 142.351562 180.554688 140.179688 179.730469 Z M 148.464844 194.535156 C 145.089844 195.238281 141.242188 195.570312 138.054688 196.886719 C 137.726562 197.027344 137.703125 197.617188 138.148438 197.59375 C 141.644531 197.40625 145.277344 196.039062 148.65625 195.191406 C 149.078125 195.074219 148.890625 194.441406 148.464844 194.535156 Z M 152.503906 208.375 C 153.234375 207.925781 153.945312 207.40625 154.628906 206.867188 C 155.101562 206.492188 154.4375 205.855469 153.964844 206.207031 C 153.28125 206.75 152.550781 207.265625 151.792969 207.714844 C 151.203125 208.066406 150.449219 208.277344 150.046875 208.867188 C 149.90625 209.078125 150.09375 209.316406 150.308594 209.335938 C 151.0625 209.410156 151.890625 208.773438 152.503906 208.375 Z M 188.410156 217.339844 C 188.929688 219.671875 189.308594 222.519531 190.441406 224.613281 C 190.628906 224.964844 191.195312 224.800781 191.171875 224.425781 C 191.148438 222.023438 190.0625 219.339844 189.402344 217.058594 C 189.210938 216.421875 188.269531 216.683594 188.410156 217.339844 Z M 148.773438 177.421875 C 144.121094 174.808594 139.332031 171.65625 134.300781 169.820312 C 133.828125 169.632812 133.617188 170.335938 133.972656 170.597656 C 138.222656 173.726562 143.507812 175.984375 148.207031 178.410156 C 148.84375 178.714844 149.410156 177.773438 148.773438 177.421875 Z M 164.898438 164.40625 C 163.667969 161.980469 162.582031 159.273438 161 157.0625 C 160.8125 156.78125 160.292969 156.945312 160.410156 157.296875 C 161.308594 159.910156 162.914062 162.359375 164.210938 164.804688 C 164.449219 165.253906 165.109375 164.851562 164.898438 164.40625 Z M 186.851562 153.789062 C 185.386719 156.6875 185.105469 160.59375 184.492188 163.746094 C 184.398438 164.265625 185.152344 164.476562 185.292969 163.960938 C 186.097656 160.851562 187.535156 157.15625 187.441406 153.933594 C 187.417969 153.671875 186.992188 153.507812 186.851562 153.789062 Z M 202.171875 177.632812 C 205.007812 175.890625 208.3125 174.246094 210.71875 171.960938 C 211 171.703125 210.71875 171.113281 210.316406 171.277344 C 207.25 172.550781 204.414062 174.878906 201.675781 176.761719 C 201.132812 177.140625 201.605469 177.988281 202.171875 177.632812 Z M 218.085938 193.710938 C 213.953125 192.886719 209.46875 192.980469 205.289062 193.144531 C 204.652344 193.167969 204.628906 194.132812 205.289062 194.15625 C 209.515625 194.203125 213.765625 194.628906 217.964844 194.582031 C 218.460938 194.582031 218.601562 193.804688 218.085938 193.710938 Z M 196.339844 210.75 C 195.773438 210.136719 194.878906 211.03125 195.421875 211.667969 C 196.460938 212.84375 197.425781 214.070312 198.371094 215.339844 C 199.082031 216.28125 199.671875 217.644531 200.734375 218.1875 C 201.039062 218.351562 201.558594 218.164062 201.511719 217.742188 C 201.371094 216.46875 200.285156 215.433594 199.527344 214.445312 C 198.515625 213.175781 197.453125 211.949219 196.339844 210.75 Z M 166.359375 213.808594 C 165.984375 214.773438 165.605469 215.742188 165.226562 216.703125 C 164.898438 217.550781 164.332031 218.492188 164.449219 219.390625 C 164.496094 219.765625 164.898438 219.976562 165.203125 219.695312 C 165.886719 219.082031 166.078125 218.070312 166.382812 217.222656 C 166.761719 216.1875 167.140625 215.152344 167.519531 214.117188 C 167.777344 213.386719 166.644531 213.082031 166.359375 213.808594 Z M 150.378906 202.769531 C 146.292969 204.746094 142.117188 206.890625 138.527344 209.667969 C 137.914062 210.136719 138.457031 211.199219 139.164062 210.75 C 143.085938 208.347656 146.835938 205.808594 150.898438 203.640625 C 151.464844 203.335938 150.96875 202.488281 150.378906 202.769531 Z M 209.394531 204.160156 C 207.695312 203.3125 205.972656 202.488281 204.273438 201.664062 C 203.707031 201.382812 203.1875 202.230469 203.777344 202.535156 C 205.453125 203.40625 207.128906 204.277344 208.832031 205.148438 C 210.316406 205.925781 211.828125 206.890625 213.457031 207.265625 C 213.8125 207.335938 214.140625 206.890625 213.835938 206.632812 C 212.535156 205.550781 210.90625 204.914062 209.394531 204.160156 Z M 159.890625 209.878906 C 158.285156 211.621094 156.660156 213.339844 154.957031 215.011719 C 153.421875 216.515625 151.605469 217.882812 150.308594 219.578125 C 150.046875 219.929688 150.542969 220.378906 150.898438 220.164062 C 152.714844 219.035156 154.203125 217.269531 155.691406 215.742188 C 157.367188 214.046875 158.972656 212.304688 160.554688 210.539062 C 160.929688 210.089844 160.292969 209.457031 159.890625 209.878906 Z M 196.742188 169.703125 C 198.417969 167.628906 200.117188 165.605469 201.984375 163.699219 C 203.847656 161.792969 206.042969 160.214844 207.863281 158.285156 C 208.144531 157.980469 207.789062 157.488281 207.414062 157.699219 C 202.976562 160.261719 199.054688 165.089844 196.199219 169.277344 C 195.988281 169.609375 196.507812 170.007812 196.742188 169.703125 Z M 150.472656 165.136719 C 152.101562 166.925781 153.519531 168.878906 155.476562 170.335938 C 155.878906 170.621094 156.398438 169.960938 155.996094 169.65625 C 152.171875 166.59375 149.8125 161.277344 145.257812 159.109375 C 144.996094 158.992188 144.617188 159.25 144.832031 159.535156 C 146.390625 161.605469 148.726562 163.207031 150.472656 165.136719 Z M 177.878906 217.691406 C 177.761719 222.519531 177.265625 227.507812 177.550781 232.335938 C 177.597656 233.0625 178.589844 233.039062 178.660156 232.335938 C 179.273438 227.578125 178.917969 222.496094 178.800781 217.691406 C 178.800781 217.105469 177.90625 217.105469 177.878906 217.691406 Z M 222.074219 184.671875 C 215.914062 183.636719 209.042969 184.554688 202.953125 185.613281 C 202.433594 185.707031 202.550781 186.601562 203.070312 186.53125 C 206.1875 186.132812 209.324219 185.847656 212.488281 185.683594 C 215.628906 185.542969 218.816406 185.800781 221.957031 185.589844 C 222.453125 185.589844 222.640625 184.765625 222.074219 184.671875 Z M 150.308594 186.789062 C 145.113281 187.261719 139.589844 187.496094 134.515625 188.695312 C 133.902344 188.835938 134.042969 189.777344 134.65625 189.777344 C 139.875 189.730469 145.304688 188.625 150.449219 187.847656 C 151.039062 187.753906 150.898438 186.742188 150.308594 186.789062 Z M 170.84375 145.789062 C 171.292969 151.53125 172.191406 157.273438 172.996094 162.96875 C 173.042969 163.324219 173.65625 163.230469 173.609375 162.875 C 172.96875 157.15625 172.449219 151.367188 171.460938 145.695312 C 171.414062 145.363281 170.824219 145.433594 170.84375 145.789062 Z M 176.746094 208.207031 C 174.71875 209.996094 174.433594 212.585938 175.449219 213.785156 C 176.9375 215.550781 181.1875 214.328125 181.609375 212.679688 C 181.917969 211.386719 180.078125 209.269531 176.746094 208.207031 Z M 197.261719 206.539062 C 197.546875 204.960938 192.847656 202.160156 191.480469 203.195312 C 190.605469 203.855469 190.628906 206.417969 192.28125 207.644531 C 194.242188 209.101562 197.074219 207.667969 197.261719 206.539062 Z M 164.804688 201.710938 C 163.363281 202.464844 162.511719 204.300781 163.125 205.996094 C 163.789062 207.785156 165.792969 208.679688 167.046875 208.230469 C 169.050781 207.503906 169.617188 203.03125 167.800781 201.710938 C 166.902344 201.078125 165.628906 201.265625 164.804688 201.710938 Z M 159.394531 192.039062 C 158.617188 192.605469 152.929688 196.769531 153.800781 198.746094 C 154.390625 200.039062 157.957031 200.746094 159.964844 198.746094 C 161.710938 196.957031 161.566406 193.78125 159.394531 192.039062 Z M 178.613281 205.621094 C 179.582031 207.078125 181.824219 207.289062 183.285156 206.371094 C 184.5625 205.550781 185.292969 203.855469 184.773438 202.652344 C 183.972656 200.816406 180.265625 200.324219 178.800781 202.089844 C 178.046875 202.984375 177.878906 204.511719 178.613281 205.621094 Z M 193.15625 178.644531 C 193.390625 178.714844 198.277344 180.175781 199.695312 177.703125 C 200.542969 176.222656 199.859375 173.75 198.394531 172.878906 C 195.632812 171.207031 190.371094 175.304688 190.746094 177.164062 C 190.890625 177.941406 192.070312 178.292969 193.15625 178.644531 Z M 190.558594 199.289062 C 191.289062 199.40625 194.6875 199.921875 195.585938 198.179688 C 196.292969 196.816406 195.210938 194.652344 193.722656 193.710938 C 190.769531 191.875 185.695312 194.675781 185.695312 196.511719 C 185.695312 197.875 188.644531 199.003906 190.558594 199.289062 Z M 173.9375 189.992188 C 172.308594 189.660156 170.253906 191.308594 170.019531 193.332031 C 169.808594 195.144531 171.035156 197.214844 172.828125 197.429688 C 174.199219 197.59375 175.449219 196.605469 175.992188 195.570312 C 177.054688 193.519531 175.898438 190.367188 173.9375 189.992188 Z M 185.128906 191.097656 C 188.148438 189.707031 189.96875 185.542969 188.859375 184.222656 C 187.703125 182.835938 182.910156 183.894531 181.210938 186.835938 C 180.546875 187.988281 179.980469 190.085938 181.019531 191.121094 C 182.296875 192.367188 184.964844 191.167969 185.128906 191.097656 Z M 159.773438 182.363281 C 159.46875 184.578125 161.851562 186.648438 163.882812 187.378906 C 166.949219 188.484375 171.082031 187.167969 171.90625 184.578125 C 172.402344 183.023438 171.507812 181.496094 171.34375 181.234375 C 169.902344 178.789062 166.808594 178.644531 166.3125 178.621094 C 163.761719 178.527344 160.105469 179.824219 159.773438 182.363281 Z M 175.613281 180.859375 C 176.675781 182.671875 179.582031 183.117188 181.398438 181.800781 C 182.957031 180.671875 183.546875 178.363281 182.695312 176.972656 C 181.46875 174.949219 177.289062 175.023438 175.804688 177.164062 C 175.09375 178.175781 174.929688 179.707031 175.613281 180.859375 Z M 159.394531 176.597656 C 160.976562 178.011719 166.359375 175.984375 166.476562 173.445312 C 166.550781 171.984375 164.921875 170.148438 162.9375 170.101562 C 160.410156 170.03125 159.253906 172.925781 159.207031 173.066406 C 158.878906 173.9375 158.476562 175.796875 159.394531 176.597656 Z M 175.425781 166.523438 C 178.140625 166.640625 179.582031 166.734375 180.265625 167.820312 C 180.972656 168.925781 180.714844 170.761719 179.699219 171.539062 C 178.566406 172.433594 176.84375 171.703125 174.667969 170.785156 C 174.386719 170.667969 169.289062 168.523438 169.640625 167.253906 C 169.902344 166.265625 173.300781 166.429688 175.425781 166.523438 "/>
</g>
</svg>
